<svg xmlns="http://www.w3.org/2000/svg" width="680" height="700" viewBox="0 0 680 700" fill="none"><path opacity="0.2" d="M38 600C38 601.105 38.8954 602 40 602C41.1046 602 42 601.105 42 600H38ZM642 100C642 98.8954 641.105 98 640 98C638.895 98 638 98.8954 638 100H642ZM42.1958 589.855C42.2385 588.751 41.3783 587.822 40.2745 587.779C39.1708 587.736 38.2414 588.596 38.1988 589.7L42.1958 589.855ZM39.7928 569.189C39.6643 570.286 40.4494 571.279 41.5465 571.408C42.6435 571.536 43.6371 570.751 43.7656 569.654L39.7928 569.189ZM46.9108 549.646C47.1252 548.562 46.4206 547.51 45.337 547.296C44.2534 547.082 43.2012 547.786 42.9869 548.87L46.9108 549.646ZM47.7756 528.855C47.4763 529.918 48.0956 531.022 49.1588 531.322C50.222 531.621 51.3266 531.002 51.6259 529.939L47.7756 528.855ZM57.8804 510.677C58.2629 509.641 57.7328 508.491 56.6966 508.108C55.6603 507.726 54.5103 508.256 54.1278 509.292L57.8804 510.677ZM62.0109 490.282C61.5478 491.285 61.9853 492.473 62.9881 492.936C63.9909 493.399 65.1793 492.962 65.6424 491.959L62.0109 490.282ZM74.8539 473.916C75.3944 472.953 75.0518 471.734 74.0886 471.193C73.1253 470.652 71.9062 470.995 71.3656 471.958L74.8539 473.916ZM82.131 454.427C81.5166 455.345 81.7625 456.587 82.6803 457.202C83.5982 457.816 84.8404 457.57 85.4549 456.653L82.131 454.427ZM97.3777 440.27C98.0621 439.403 97.9141 438.145 97.0471 437.461C96.1801 436.776 94.9225 436.924 94.2381 437.791L97.3777 440.27ZM107.606 422.154C106.856 422.965 106.906 424.23 107.717 424.98C108.527 425.73 109.793 425.681 110.543 424.87L107.606 422.154ZM124.87 410.543C125.681 409.793 125.73 408.527 124.98 407.717C124.23 406.906 122.965 406.856 122.154 407.606L124.87 410.543ZM137.791 394.238C136.924 394.923 136.776 396.18 137.461 397.047C138.145 397.914 139.403 398.062 140.27 397.378L137.791 394.238ZM156.653 385.455C157.57 384.84 157.816 383.598 157.202 382.68C156.587 381.763 155.345 381.517 154.427 382.131L156.653 385.455ZM171.958 371.366C170.995 371.906 170.652 373.125 171.193 374.089C171.734 375.052 172.953 375.394 173.916 374.854L171.958 371.366ZM191.959 365.642C192.962 365.179 193.399 363.991 192.936 362.988C192.473 361.985 191.285 361.548 190.282 362.011L191.959 365.642ZM209.292 354.128C208.256 354.51 207.726 355.66 208.108 356.697C208.491 357.733 209.641 358.263 210.677 357.88L209.292 354.128ZM229.939 351.626C231.002 351.327 231.621 350.222 231.322 349.159C231.022 348.096 229.918 347.476 228.855 347.776L229.939 351.626ZM248.87 342.987C247.786 343.201 247.082 344.253 247.296 345.337C247.51 346.421 248.562 347.125 249.646 346.911L248.87 342.987ZM269.654 343.766C270.751 343.637 271.536 342.644 271.408 341.546C271.279 340.449 270.286 339.664 269.189 339.793L269.654 343.766ZM289.7 338.199C288.596 338.241 287.736 339.171 287.779 340.275C287.822 341.378 288.751 342.238 289.855 342.196L289.7 338.199ZM308.333 342C309.438 342 310.333 341.105 310.333 340C310.333 338.895 309.438 338 308.333 338V342ZM325 338C323.895 338 323 338.895 323 340C323 341.105 323.895 342 325 342V338ZM341.667 342C342.771 342 343.667 341.105 343.667 340C343.667 338.895 342.771 338 341.667 338V342ZM358.333 338C357.229 338 356.333 338.895 356.333 340C356.333 341.105 357.229 342 358.333 342V338ZM375 342C376.105 342 377 341.105 377 340C377 338.895 376.105 338 375 338V342ZM391.667 338C390.562 338 389.667 338.895 389.667 340C389.667 341.105 390.562 342 391.667 342V338ZM410.565 341.773C411.669 341.726 412.525 340.793 412.477 339.689C412.43 338.586 411.497 337.73 410.393 337.777L410.565 341.773ZM431.088 335.988C429.992 336.131 429.22 337.135 429.363 338.23C429.506 339.325 430.51 340.098 431.605 339.955L431.088 335.988ZM452.399 336.311C453.478 336.073 454.159 335.006 453.921 333.927C453.683 332.849 452.616 332.167 451.537 332.406L452.399 336.311ZM471.59 327.045C470.537 327.377 469.952 328.5 470.284 329.553C470.616 330.607 471.739 331.192 472.792 330.86L471.59 327.045ZM492.635 323.636C493.656 323.213 494.14 322.043 493.717 321.023C493.293 320.002 492.123 319.518 491.103 319.941L492.635 323.636ZM509.917 311.153C508.938 311.664 508.558 312.872 509.069 313.851C509.58 314.831 510.788 315.21 511.767 314.7L509.917 311.153ZM530.043 304.126C530.974 303.532 531.247 302.295 530.652 301.364C530.058 300.433 528.821 300.16 527.89 300.754L530.043 304.126ZM544.89 288.83C544.014 289.503 543.849 290.759 544.522 291.635C545.195 292.51 546.451 292.675 547.327 292.002L544.89 288.83ZM563.493 278.423C564.307 277.676 564.362 276.411 563.616 275.597C562.869 274.783 561.604 274.728 560.79 275.474L563.493 278.423ZM575.474 260.79C574.728 261.604 574.783 262.869 575.597 263.616C576.411 264.362 577.676 264.307 578.423 263.493L575.474 260.79ZM592.002 247.327C592.675 246.451 592.51 245.195 591.635 244.522C590.759 243.849 589.503 244.014 588.83 244.89L592.002 247.327ZM600.755 227.89C600.16 228.821 600.433 230.058 601.364 230.652C602.295 231.247 603.532 230.974 604.126 230.043L600.755 227.89ZM614.7 211.767C615.21 210.788 614.831 209.58 613.851 209.069C612.872 208.558 611.664 208.938 611.153 209.917L614.7 211.767ZM619.941 191.103C619.518 192.123 620.002 193.293 621.023 193.716C622.043 194.14 623.213 193.655 623.636 192.635L619.941 191.103ZM630.86 172.792C631.192 171.739 630.607 170.616 629.553 170.284C628.5 169.952 627.377 170.537 627.045 171.59L630.86 172.792ZM632.406 151.537C632.167 152.615 632.849 153.683 633.927 153.921C635.006 154.159 636.073 153.478 636.311 152.399L632.406 151.537ZM639.955 131.605C640.098 130.51 639.325 129.506 638.23 129.363C637.135 129.22 636.131 129.992 635.988 131.087L639.955 131.605ZM637.777 110.393C637.73 111.497 638.586 112.43 639.689 112.477C640.793 112.525 641.726 111.668 641.773 110.565L637.777 110.393ZM42 600C42 596.602 42.0657 593.22 42.1958 589.855L38.1988 589.7C38.0667 593.117 38 596.551 38 600H42ZM43.7656 569.654C44.5567 562.901 45.6086 556.229 46.9108 549.646L42.9869 548.87C41.6643 555.555 40.5961 562.332 39.7928 569.189L43.7656 569.654ZM51.6259 529.939C53.4639 523.409 55.5524 516.985 57.8804 510.677L54.1278 509.292C51.7634 515.699 49.6423 522.223 47.7756 528.855L51.6259 529.939ZM65.6424 491.959C68.4818 485.81 71.5561 479.792 74.8539 473.916L71.3656 471.958C68.0167 477.926 64.8945 484.037 62.0109 490.282L65.6424 491.959ZM85.4549 456.653C89.218 451.032 93.1962 445.567 97.3777 440.27L94.2381 437.791C89.9921 443.17 85.9524 448.719 82.131 454.427L85.4549 456.653ZM110.543 424.87C115.13 419.91 119.91 415.13 124.87 410.543L122.154 407.606C117.117 412.264 112.264 417.117 107.606 422.154L110.543 424.87ZM140.27 397.378C145.567 393.196 151.032 389.218 156.653 385.455L154.427 382.131C148.719 385.952 143.17 389.992 137.791 394.238L140.27 397.378ZM173.916 374.854C179.792 371.556 185.81 368.482 191.959 365.642L190.282 362.011C184.037 364.895 177.926 368.017 171.958 371.366L173.916 374.854ZM210.677 357.88C216.985 355.552 223.409 353.464 229.939 351.626L228.855 347.776C222.223 349.642 215.699 351.763 209.292 354.128L210.677 357.88ZM249.646 346.911C256.229 345.609 262.902 344.557 269.654 343.766L269.189 339.793C262.332 340.596 255.555 341.664 248.87 342.987L249.646 346.911ZM289.855 342.196C293.22 342.066 296.602 342 300 342V338C296.551 338 293.117 338.067 289.7 338.199L289.855 342.196ZM300 342H308.333V338H300V342ZM325 342H341.667V338H325V342ZM358.333 342H375V338H358.333V342ZM391.667 342H400V338H391.667V342ZM400 342C403.54 342 407.062 341.924 410.565 341.773L410.393 337.777C406.947 337.925 403.483 338 400 338V342ZM431.605 339.955C438.635 339.038 445.571 337.819 452.399 336.311L451.537 332.406C444.823 333.888 438.002 335.086 431.088 335.988L431.605 339.955ZM472.792 330.86C479.539 328.735 486.158 326.322 492.635 323.636L491.103 319.941C484.734 322.582 478.225 324.955 471.59 327.045L472.792 330.86ZM511.767 314.7C518.025 311.436 524.122 307.906 530.043 304.126L527.89 300.754C522.067 304.472 516.071 307.943 509.917 311.153L511.767 314.7ZM547.327 292.002C552.913 287.709 558.307 283.177 563.493 278.423L560.79 275.474C555.689 280.151 550.384 284.608 544.89 288.83L547.327 292.002ZM578.423 263.493C583.177 258.307 587.709 252.913 592.002 247.327L588.83 244.89C584.608 250.384 580.151 255.689 575.474 260.79L578.423 263.493ZM604.126 230.043C607.906 224.121 611.436 218.025 614.7 211.767L611.153 209.917C607.943 216.071 604.472 222.067 600.755 227.89L604.126 230.043ZM623.636 192.635C626.322 186.158 628.735 179.539 630.86 172.792L627.045 171.59C624.955 178.225 622.583 184.734 619.941 191.103L623.636 192.635ZM636.311 152.399C637.819 145.571 639.038 138.635 639.955 131.605L635.988 131.087C635.086 138.002 633.888 144.823 632.406 151.537L636.311 152.399ZM641.773 110.565C641.924 107.062 642 103.54 642 100H638C638 103.483 637.925 106.947 637.777 110.393L641.773 110.565Z" fill="#EB7A61"></path><rect x="296" y="320" width="89" height="39" rx="19.5" fill="white"></rect><path d="M322.576 342.725C322.816 342.725 322.996 342.78 323.116 342.89C323.236 343 323.296 343.155 323.296 343.355C323.296 343.785 323.056 344 322.576 344H317.566C317.076 344 316.831 343.785 316.831 343.355C316.831 343.155 316.891 343 317.011 342.89C317.141 342.78 317.326 342.725 317.566 342.725H319.291V335.24L317.746 336.215C317.646 336.275 317.546 336.305 317.446 336.305C317.276 336.305 317.126 336.23 316.996 336.08C316.876 335.93 316.816 335.76 316.816 335.57C316.816 335.34 316.916 335.16 317.116 335.03L319.426 333.56C319.656 333.42 319.876 333.35 320.086 333.35C320.306 333.35 320.486 333.42 320.626 333.56C320.766 333.7 320.836 333.89 320.836 334.13V342.725H322.576ZM328.63 344.12C327.4 344.12 326.46 343.66 325.81 342.74C325.17 341.82 324.85 340.48 324.85 338.72C324.85 336.95 325.17 335.605 325.81 334.685C326.46 333.765 327.4 333.305 328.63 333.305C329.86 333.305 330.795 333.765 331.435 334.685C332.085 335.595 332.41 336.935 332.41 338.705C332.41 340.475 332.085 341.82 331.435 342.74C330.795 343.66 329.86 344.12 328.63 344.12ZM328.63 342.875C329.4 342.875 329.965 342.54 330.325 341.87C330.685 341.2 330.865 340.145 330.865 338.705C330.865 337.265 330.685 336.215 330.325 335.555C329.965 334.885 329.4 334.55 328.63 334.55C327.86 334.55 327.295 334.885 326.935 335.555C326.575 336.215 326.395 337.265 326.395 338.705C326.395 340.135 326.575 341.19 326.935 341.87C327.295 342.54 327.86 342.875 328.63 342.875ZM346.53 336.5C348.17 336.5 348.99 337.485 348.99 339.455V343.355C348.99 343.585 348.92 343.765 348.78 343.895C348.64 344.015 348.455 344.075 348.225 344.075C348.005 344.075 347.825 344.015 347.685 343.895C347.545 343.765 347.475 343.585 347.475 343.355V339.47C347.475 338.86 347.365 338.42 347.145 338.15C346.925 337.87 346.58 337.73 346.11 337.73C345.56 337.73 345.125 337.92 344.805 338.3C344.485 338.67 344.325 339.18 344.325 339.83V343.355C344.325 343.585 344.255 343.765 344.115 343.895C343.975 344.015 343.79 344.075 343.56 344.075C343.34 344.075 343.16 344.015 343.02 343.895C342.88 343.765 342.81 343.585 342.81 343.355V339.47C342.81 338.86 342.7 338.42 342.48 338.15C342.26 337.87 341.915 337.73 341.445 337.73C340.895 337.73 340.455 337.92 340.125 338.3C339.805 338.67 339.645 339.18 339.645 339.83V343.355C339.645 343.585 339.575 343.765 339.435 343.895C339.295 344.015 339.115 344.075 338.895 344.075C338.675 344.075 338.49 344.015 338.34 343.895C338.2 343.765 338.13 343.585 338.13 343.355V337.25C338.13 337.03 338.205 336.855 338.355 336.725C338.505 336.595 338.685 336.53 338.895 336.53C339.105 336.53 339.275 336.595 339.405 336.725C339.545 336.845 339.615 337.015 339.615 337.235V337.79C339.835 337.37 340.14 337.05 340.53 336.83C340.92 336.61 341.37 336.5 341.88 336.5C342.44 336.5 342.9 336.615 343.26 336.845C343.63 337.075 343.905 337.43 344.085 337.91C344.305 337.48 344.63 337.14 345.06 336.89C345.49 336.63 345.98 336.5 346.53 336.5ZM351.829 344.075C351.609 344.075 351.424 344.015 351.274 343.895C351.134 343.775 351.064 343.595 351.064 343.355V337.265C351.064 337.025 351.134 336.845 351.274 336.725C351.424 336.595 351.609 336.53 351.829 336.53C352.049 336.53 352.229 336.595 352.369 336.725C352.509 336.845 352.579 337.025 352.579 337.265V343.355C352.579 343.595 352.509 343.775 352.369 343.895C352.229 344.015 352.049 344.075 351.829 344.075ZM351.829 335.06C351.539 335.06 351.309 334.98 351.139 334.82C350.969 334.66 350.884 334.45 350.884 334.19C350.884 333.93 350.969 333.725 351.139 333.575C351.309 333.415 351.539 333.335 351.829 333.335C352.109 333.335 352.334 333.415 352.504 333.575C352.684 333.725 352.774 333.93 352.774 334.19C352.774 334.45 352.689 334.66 352.519 334.82C352.349 334.98 352.119 335.06 351.829 335.06ZM358.642 336.5C360.392 336.5 361.267 337.485 361.267 339.455V343.355C361.267 343.585 361.197 343.765 361.057 343.895C360.927 344.015 360.742 344.075 360.502 344.075C360.272 344.075 360.087 344.01 359.947 343.88C359.817 343.75 359.752 343.575 359.752 343.355V339.53C359.752 338.91 359.627 338.455 359.377 338.165C359.137 337.875 358.757 337.73 358.237 337.73C357.627 337.73 357.137 337.92 356.767 338.3C356.397 338.68 356.212 339.19 356.212 339.83V343.355C356.212 343.575 356.142 343.75 356.002 343.88C355.872 344.01 355.692 344.075 355.462 344.075C355.232 344.075 355.047 344.01 354.907 343.88C354.767 343.75 354.697 343.575 354.697 343.355V337.25C354.697 337.04 354.767 336.87 354.907 336.74C355.057 336.6 355.242 336.53 355.462 336.53C355.682 336.53 355.857 336.595 355.987 336.725C356.117 336.855 356.182 337.025 356.182 337.235V337.85C356.422 337.41 356.757 337.075 357.187 336.845C357.617 336.615 358.102 336.5 358.642 336.5ZM364.075 344.075C363.805 344.075 363.575 343.985 363.385 343.805C363.205 343.625 363.115 343.395 363.115 343.115C363.115 342.835 363.205 342.605 363.385 342.425C363.575 342.235 363.805 342.14 364.075 342.14C364.345 342.14 364.57 342.235 364.75 342.425C364.93 342.605 365.02 342.835 365.02 343.115C365.02 343.395 364.93 343.625 364.75 343.805C364.57 343.985 364.345 344.075 364.075 344.075Z" fill="#2F1C64"></path><rect y="620" width="80" height="80" rx="20" fill="white"></rect><path fill-rule="evenodd" clip-rule="evenodd" d="M40.0968 685C46.3468 685 60.0968 664.645 60.0968 653.742C60.0968 642.839 51.1425 634 40.0968 634C29.0511 634 20.0968 642.839 20.0968 653.742C20.0968 664.645 33.8468 685 40.0968 685ZM40.0968 661.968C44.6992 661.968 48.4302 658.285 48.4302 653.742C48.4302 649.199 44.6992 645.516 40.0968 645.516C35.4944 645.516 31.7635 649.199 31.7635 653.742C31.7635 658.285 35.4944 661.968 40.0968 661.968Z" fill="#EB7A61"></path><rect x="600" width="80" height="80" rx="20" fill="white"></rect><path fill-rule="evenodd" clip-rule="evenodd" d="M640 66C646.25 66 660 45.6451 660 34.7419C660 23.8388 651.046 15 640 15C628.954 15 620 23.8388 620 34.7419C620 45.6451 633.75 66 640 66ZM640 42.9677C644.602 42.9677 648.333 39.2849 648.333 34.7419C648.333 30.1989 644.602 26.5161 640 26.5161C635.398 26.5161 631.667 30.1989 631.667 34.7419C631.667 39.2849 635.398 42.9677 640 42.9677Z" fill="#EB7A61"></path></svg>