<?xml version="1.0" encoding="UTF-8"?> <svg xmlns="http://www.w3.org/2000/svg" width="199" height="48" viewBox="0 0 199 48" fill="none"><rect width="48" height="48" rx="10" fill="#FAEBE5"></rect><ellipse cx="24" cy="40" rx="8" ry="2" fill="black" fill-opacity="0.05"></ellipse><path fill-rule="evenodd" clip-rule="evenodd" d="M25.8306 35.8395L35 15C35 15 30.75 13 24 13C17.25 13 13 15 13 15L22.1694 35.8395C22.8702 37.4322 25.1298 37.4322 25.8306 35.8395ZM24 24C26.2091 24 28 22.2091 28 20C28 17.7909 26.2091 16 24 16C21.7909 16 20 17.7909 20 20C20 22.2091 21.7909 24 24 24Z" fill="#FBBA7D"></path><path d="M24 7C28.9328 7 32.763 8.06076 35.3181 9.08976C37.4241 9.93792 37.82 12.475 36.4017 14.2479L35.4689 15.4139C35.1911 15.7612 34.7184 15.8859 34.2984 15.7396C32.7436 15.198 28.7659 14 24 14C19.2341 14 15.2564 15.198 13.7016 15.7396C13.2816 15.8859 12.8089 15.7612 12.5311 15.4139L11.5983 14.2479C10.18 12.475 10.5759 9.93792 12.6819 9.08976C15.237 8.06075 19.0672 7 24 7Z" fill="#E69347"></path><path d="M81.432 14.936C81.6 14.488 81.852 14.152 82.188 13.928C82.5427 13.6853 82.9347 13.564 83.364 13.564C83.9053 13.564 84.3627 13.732 84.736 14.068C85.128 14.404 85.324 14.8613 85.324 15.44C85.324 15.72 85.268 16.028 85.156 16.364L79.332 32.296C79.164 32.744 78.8653 33.0987 78.436 33.36C78.0253 33.6027 77.568 33.724 77.064 33.724C76.56 33.724 76.1027 33.6027 75.692 33.36C75.2813 33.0987 74.992 32.744 74.824 32.296L70.652 20.508L66.368 32.296C66.2 32.744 65.9107 33.0987 65.5 33.36C65.0893 33.6027 64.632 33.724 64.128 33.724C63.6427 33.724 63.1853 33.6027 62.756 33.36C62.3453 33.0987 62.056 32.744 61.888 32.296L56.064 16.364C55.952 16.0467 55.896 15.748 55.896 15.468C55.896 14.8893 56.1013 14.432 56.512 14.096C56.9227 13.7413 57.408 13.564 57.968 13.564C58.416 13.564 58.8173 13.6853 59.172 13.928C59.5453 14.152 59.816 14.488 59.984 14.936L64.296 27.34L68.776 14.992C68.944 14.544 69.2053 14.1987 69.56 13.956C69.9333 13.7133 70.3253 13.592 70.736 13.592C71.1653 13.592 71.5573 13.7133 71.912 13.956C72.2667 14.1987 72.528 14.5533 72.696 15.02L76.98 27.564L81.432 14.936Z" fill="#EB7A61"></path><path d="M92.7906 33.724C91.3346 33.724 90.0559 33.4347 88.9546 32.856C87.8533 32.2587 87.0039 31.428 86.4066 30.364C85.8093 29.2813 85.5106 28.012 85.5106 26.556C85.5106 25.1 85.8093 23.84 86.4066 22.776C87.0039 21.6933 87.8533 20.8627 88.9546 20.284C90.0559 19.7053 91.3346 19.416 92.7906 19.416C94.2466 19.416 95.5253 19.7053 96.6266 20.284C97.7279 20.8627 98.5773 21.6933 99.1746 22.776C99.7719 23.84 100.071 25.1 100.071 26.556C100.071 28.012 99.7719 29.2813 99.1746 30.364C98.5773 31.428 97.7279 32.2587 96.6266 32.856C95.5253 33.4347 94.2466 33.724 92.7906 33.724ZM92.7906 30.504C94.8439 30.504 95.8706 29.188 95.8706 26.556C95.8706 25.2307 95.5999 24.2413 95.0586 23.588C94.5359 22.9347 93.7799 22.608 92.7906 22.608C90.7373 22.608 89.7106 23.924 89.7106 26.556C89.7106 29.188 90.7373 30.504 92.7906 30.504Z" fill="#EB7A61"></path><path d="M109.252 33.724C107.796 33.724 106.517 33.4347 105.416 32.856C104.314 32.2587 103.465 31.428 102.868 30.364C102.27 29.2813 101.972 28.012 101.972 26.556C101.972 25.1 102.27 23.84 102.868 22.776C103.465 21.6933 104.314 20.8627 105.416 20.284C106.517 19.7053 107.796 19.416 109.252 19.416C110.708 19.416 111.986 19.7053 113.088 20.284C114.189 20.8627 115.038 21.6933 115.636 22.776C116.233 23.84 116.532 25.1 116.532 26.556C116.532 28.012 116.233 29.2813 115.636 30.364C115.038 31.428 114.189 32.2587 113.088 32.856C111.986 33.4347 110.708 33.724 109.252 33.724ZM109.252 30.504C111.305 30.504 112.332 29.188 112.332 26.556C112.332 25.2307 112.061 24.2413 111.52 23.588C110.997 22.9347 110.241 22.608 109.252 22.608C107.198 22.608 106.172 23.924 106.172 26.556C106.172 29.188 107.198 30.504 109.252 30.504Z" fill="#EB7A61"></path><path d="M130.836 13.62C131.49 13.62 132.012 13.7973 132.404 14.152C132.815 14.5067 133.02 14.9733 133.02 15.552V31.68C133.02 32.2773 132.824 32.7627 132.432 33.136C132.059 33.4907 131.555 33.668 130.92 33.668C130.286 33.668 129.772 33.4907 129.38 33.136C129.007 32.7627 128.82 32.2773 128.82 31.68V31.456C128.41 32.1653 127.822 32.7253 127.056 33.136C126.31 33.528 125.46 33.724 124.508 33.724C123.332 33.724 122.278 33.4253 121.344 32.828C120.43 32.212 119.711 31.3627 119.188 30.28C118.684 29.1787 118.432 27.9187 118.432 26.5C118.432 25.0813 118.684 23.84 119.188 22.776C119.711 21.6933 120.43 20.8627 121.344 20.284C122.259 19.7053 123.314 19.416 124.508 19.416C125.442 19.416 126.282 19.612 127.028 20.004C127.794 20.396 128.382 20.9467 128.792 21.656V15.468C128.792 14.908 128.979 14.46 129.352 14.124C129.726 13.788 130.22 13.62 130.836 13.62ZM125.74 30.504C126.73 30.504 127.486 30.168 128.008 29.496C128.55 28.8053 128.82 27.8253 128.82 26.556C128.82 25.2867 128.55 24.316 128.008 23.644C127.486 22.972 126.73 22.636 125.74 22.636C124.751 22.636 123.986 22.972 123.444 23.644C122.903 24.2973 122.632 25.2493 122.632 26.5C122.632 27.7693 122.903 28.7587 123.444 29.468C123.986 30.1587 124.751 30.504 125.74 30.504Z" fill="#EB7A61"></path><path d="M153.216 19.416C154.71 19.416 155.858 19.8733 156.66 20.788C157.463 21.684 157.864 23.1587 157.864 25.212V31.68C157.864 32.3333 157.668 32.828 157.276 33.164C156.884 33.5 156.38 33.668 155.764 33.668C155.167 33.668 154.663 33.5 154.252 33.164C153.842 32.828 153.636 32.3333 153.636 31.68V25.156C153.636 24.26 153.478 23.6347 153.16 23.28C152.862 22.9067 152.395 22.72 151.76 22.72C150.976 22.72 150.351 22.9907 149.884 23.532C149.418 24.0733 149.184 24.8293 149.184 25.8V31.68C149.184 32.3333 148.988 32.828 148.596 33.164C148.204 33.5 147.7 33.668 147.084 33.668C146.487 33.668 145.983 33.5 145.572 33.164C145.162 32.828 144.956 32.3333 144.956 31.68V25.156C144.956 24.26 144.798 23.6347 144.48 23.28C144.182 22.9067 143.715 22.72 143.08 22.72C142.296 22.72 141.671 22.9907 141.204 23.532C140.738 24.0733 140.504 24.8293 140.504 25.8V31.68C140.504 32.3333 140.299 32.828 139.888 33.164C139.496 33.5 139.002 33.668 138.404 33.668C137.807 33.668 137.303 33.5 136.892 33.164C136.482 32.828 136.276 32.3333 136.276 31.68V21.404C136.276 20.788 136.482 20.312 136.892 19.976C137.322 19.64 137.835 19.472 138.432 19.472C138.992 19.472 139.459 19.64 139.832 19.976C140.206 20.2933 140.392 20.7413 140.392 21.32V21.6C140.84 20.8907 141.419 20.3493 142.128 19.976C142.856 19.6027 143.678 19.416 144.592 19.416C145.582 19.416 146.412 19.6213 147.084 20.032C147.775 20.424 148.307 21.068 148.68 21.964C149.11 21.18 149.716 20.564 150.5 20.116C151.303 19.6493 152.208 19.416 153.216 19.416Z" fill="#EB7A61"></path><path d="M167.238 19.416C169.254 19.416 170.747 19.9107 171.718 20.9C172.688 21.8707 173.174 23.364 173.174 25.38V31.708C173.174 32.324 172.996 32.8093 172.642 33.164C172.287 33.5 171.792 33.668 171.158 33.668C170.56 33.668 170.075 33.4907 169.702 33.136C169.347 32.7627 169.17 32.2867 169.17 31.708V31.512C168.89 32.2027 168.423 32.744 167.77 33.136C167.116 33.528 166.351 33.724 165.474 33.724C164.54 33.724 163.691 33.5373 162.926 33.164C162.179 32.7907 161.582 32.268 161.134 31.596C160.704 30.924 160.49 30.1773 160.49 29.356C160.49 28.348 160.742 27.5547 161.246 26.976C161.768 26.3973 162.599 25.9773 163.738 25.716C164.876 25.4547 166.435 25.324 168.414 25.324H169.142V24.82C169.142 24.036 168.964 23.4667 168.61 23.112C168.274 22.7573 167.704 22.58 166.902 22.58C166.099 22.58 164.942 22.86 163.43 23.42C163 23.6253 162.636 23.728 162.338 23.728C161.927 23.728 161.6 23.588 161.358 23.308C161.115 23.0093 160.994 22.6267 160.994 22.16C160.994 21.7867 161.078 21.4787 161.246 21.236C161.414 20.9933 161.684 20.7693 162.058 20.564C162.711 20.2093 163.504 19.9293 164.438 19.724C165.39 19.5187 166.323 19.416 167.238 19.416ZM166.398 30.812C167.219 30.812 167.882 30.5413 168.386 30C168.89 29.44 169.142 28.7213 169.142 27.844V27.368H168.666C167.154 27.368 166.09 27.4893 165.474 27.732C164.876 27.9747 164.578 28.4133 164.578 29.048C164.578 29.5707 164.746 30 165.082 30.336C165.436 30.6533 165.875 30.812 166.398 30.812Z" fill="#EB7A61"></path><path d="M184.539 19.472C185.099 19.4347 185.538 19.5653 185.855 19.864C186.191 20.144 186.359 20.5733 186.359 21.152C186.359 21.768 186.21 22.2253 185.911 22.524C185.612 22.8227 185.08 23.0093 184.315 23.084L183.475 23.168C182.448 23.28 181.702 23.616 181.235 24.176C180.787 24.736 180.563 25.4547 180.563 26.332V31.68C180.563 32.3333 180.358 32.828 179.947 33.164C179.555 33.5 179.06 33.668 178.463 33.668C177.847 33.668 177.334 33.5 176.923 33.164C176.531 32.828 176.335 32.3333 176.335 31.68V21.404C176.335 20.788 176.54 20.312 176.951 19.976C177.362 19.64 177.856 19.472 178.435 19.472C178.995 19.472 179.462 19.64 179.835 19.976C180.208 20.2933 180.395 20.7413 180.395 21.32V22.076C180.731 21.2733 181.235 20.6573 181.907 20.228C182.598 19.7987 183.344 19.556 184.147 19.5L184.539 19.472Z" fill="#EB7A61"></path><path d="M196.584 30.588C197.144 30.6253 197.555 30.7653 197.816 31.008C198.078 31.2507 198.208 31.6053 198.208 32.072C198.208 32.6133 197.994 33.024 197.564 33.304C197.135 33.584 196.519 33.696 195.716 33.64L194.932 33.584C191.666 33.3227 190.032 31.6147 190.032 28.46V22.916H188.912C188.296 22.916 187.83 22.7853 187.512 22.524C187.195 22.244 187.036 21.852 187.036 21.348C187.036 20.8253 187.195 20.4333 187.512 20.172C187.83 19.892 188.296 19.752 188.912 19.752H190.032V17.568C190.032 16.952 190.219 16.4667 190.592 16.112C190.984 15.7573 191.507 15.58 192.16 15.58C192.814 15.58 193.327 15.7573 193.7 16.112C194.074 16.4667 194.26 16.952 194.26 17.568V19.752H196.22C197.49 19.752 198.124 20.284 198.124 21.348C198.124 21.852 197.966 22.244 197.648 22.524C197.331 22.7853 196.855 22.916 196.22 22.916H194.26V28.768C194.26 29.328 194.391 29.7573 194.652 30.056C194.914 30.336 195.296 30.4947 195.8 30.532L196.584 30.588Z" fill="#EB7A61"></path></svg> 